<mxfile host="app.diagrams.net" modified="2022-01-04T00:43:10.412Z" agent="5.0 (Macintosh; Intel Mac OS X 10_15_7) AppleWebKit/605.1.15 (KHTML, like Gecko) Version/15.2 Safari/605.1.15" etag="hBnC6aQwzQybSYlQoGUr" version="16.1.4" type="github">
  <diagram id="0s8Wk6ZnzA-2uvvJdeFV" name="Page-1">
    <mxGraphModel dx="823" dy="590" grid="1" gridSize="10" guides="1" tooltips="1" connect="1" arrows="1" fold="1" page="1" pageScale="1" pageWidth="827" pageHeight="1169" math="0" shadow="0">
      <root>
        <mxCell id="0" />
        <mxCell id="1" parent="0" />
        <mxCell id="Q5xUvwP0jopd77sharJf-6" value="AWS Cloud" style="points=[[0,0],[0.25,0],[0.5,0],[0.75,0],[1,0],[1,0.25],[1,0.5],[1,0.75],[1,1],[0.75,1],[0.5,1],[0.25,1],[0,1],[0,0.75],[0,0.5],[0,0.25]];outlineConnect=0;gradientColor=none;html=1;whiteSpace=wrap;fontSize=12;fontStyle=0;container=1;pointerEvents=0;collapsible=0;recursiveResize=0;shape=mxgraph.aws4.group;grIcon=mxgraph.aws4.group_aws_cloud_alt;strokeColor=#232F3E;fillColor=none;verticalAlign=top;align=left;spacingLeft=30;fontColor=#232F3E;dashed=0;" vertex="1" parent="1">
          <mxGeometry x="180" y="100" width="800" height="530" as="geometry" />
        </mxCell>
        <mxCell id="Q5xUvwP0jopd77sharJf-16" style="edgeStyle=orthogonalEdgeStyle;rounded=0;orthogonalLoop=1;jettySize=auto;html=1;" edge="1" parent="Q5xUvwP0jopd77sharJf-6" source="Q5xUvwP0jopd77sharJf-7" target="Q5xUvwP0jopd77sharJf-12">
          <mxGeometry relative="1" as="geometry" />
        </mxCell>
        <mxCell id="Q5xUvwP0jopd77sharJf-28" style="edgeStyle=orthogonalEdgeStyle;rounded=0;orthogonalLoop=1;jettySize=auto;html=1;" edge="1" parent="Q5xUvwP0jopd77sharJf-6" source="Q5xUvwP0jopd77sharJf-7" target="Q5xUvwP0jopd77sharJf-3">
          <mxGeometry relative="1" as="geometry" />
        </mxCell>
        <mxCell id="Q5xUvwP0jopd77sharJf-7" value="" style="sketch=0;points=[[0,0,0],[0.25,0,0],[0.5,0,0],[0.75,0,0],[1,0,0],[0,1,0],[0.25,1,0],[0.5,1,0],[0.75,1,0],[1,1,0],[0,0.25,0],[0,0.5,0],[0,0.75,0],[1,0.25,0],[1,0.5,0],[1,0.75,0]];outlineConnect=0;fontColor=#232F3E;gradientColor=#F54749;gradientDirection=north;fillColor=#C7131F;strokeColor=#ffffff;dashed=0;verticalLabelPosition=bottom;verticalAlign=top;align=center;html=1;fontSize=12;fontStyle=0;aspect=fixed;shape=mxgraph.aws4.resourceIcon;resIcon=mxgraph.aws4.cognito;" vertex="1" parent="Q5xUvwP0jopd77sharJf-6">
          <mxGeometry x="91" y="65.5" width="59" height="59" as="geometry" />
        </mxCell>
        <mxCell id="Q5xUvwP0jopd77sharJf-24" style="edgeStyle=orthogonalEdgeStyle;rounded=0;orthogonalLoop=1;jettySize=auto;html=1;" edge="1" parent="Q5xUvwP0jopd77sharJf-6" source="Q5xUvwP0jopd77sharJf-5" target="Q5xUvwP0jopd77sharJf-4">
          <mxGeometry relative="1" as="geometry">
            <Array as="points">
              <mxPoint x="399" y="160" />
            </Array>
          </mxGeometry>
        </mxCell>
        <mxCell id="Q5xUvwP0jopd77sharJf-5" value="" style="sketch=0;points=[[0,0,0],[0.25,0,0],[0.5,0,0],[0.75,0,0],[1,0,0],[0,1,0],[0.25,1,0],[0.5,1,0],[0.75,1,0],[1,1,0],[0,0.25,0],[0,0.5,0],[0,0.75,0],[1,0.25,0],[1,0.5,0],[1,0.75,0]];outlineConnect=0;fontColor=#232F3E;gradientColor=#60A337;gradientDirection=north;fillColor=#277116;strokeColor=#ffffff;dashed=0;verticalLabelPosition=bottom;verticalAlign=top;align=center;html=1;fontSize=12;fontStyle=0;aspect=fixed;shape=mxgraph.aws4.resourceIcon;resIcon=mxgraph.aws4.s3;" vertex="1" parent="Q5xUvwP0jopd77sharJf-6">
          <mxGeometry x="700" y="65.5" width="60" height="60" as="geometry" />
        </mxCell>
        <mxCell id="Q5xUvwP0jopd77sharJf-25" style="edgeStyle=orthogonalEdgeStyle;rounded=0;orthogonalLoop=1;jettySize=auto;html=1;" edge="1" parent="Q5xUvwP0jopd77sharJf-6" source="Q5xUvwP0jopd77sharJf-4" target="Q5xUvwP0jopd77sharJf-2">
          <mxGeometry relative="1" as="geometry" />
        </mxCell>
        <mxCell id="Q5xUvwP0jopd77sharJf-4" value="" style="sketch=0;points=[[0,0,0],[0.25,0,0],[0.5,0,0],[0.75,0,0],[1,0,0],[0,1,0],[0.25,1,0],[0.5,1,0],[0.75,1,0],[1,1,0],[0,0.25,0],[0,0.5,0],[0,0.75,0],[1,0.25,0],[1,0.5,0],[1,0.75,0]];outlineConnect=0;fontColor=#232F3E;gradientColor=#F78E04;gradientDirection=north;fillColor=#D05C17;strokeColor=#ffffff;dashed=0;verticalLabelPosition=bottom;verticalAlign=top;align=center;html=1;fontSize=12;fontStyle=0;aspect=fixed;shape=mxgraph.aws4.resourceIcon;resIcon=mxgraph.aws4.lambda;" vertex="1" parent="Q5xUvwP0jopd77sharJf-6">
          <mxGeometry x="370" y="189" width="58" height="58" as="geometry" />
        </mxCell>
        <mxCell id="Q5xUvwP0jopd77sharJf-33" style="edgeStyle=orthogonalEdgeStyle;rounded=0;orthogonalLoop=1;jettySize=auto;html=1;entryX=0;entryY=0.5;entryDx=0;entryDy=0;entryPerimeter=0;" edge="1" parent="Q5xUvwP0jopd77sharJf-6" source="Q5xUvwP0jopd77sharJf-3" target="Q5xUvwP0jopd77sharJf-35">
          <mxGeometry relative="1" as="geometry">
            <mxPoint x="350" y="321.25" as="targetPoint" />
            <Array as="points">
              <mxPoint x="366" y="303" />
            </Array>
          </mxGeometry>
        </mxCell>
        <mxCell id="Q5xUvwP0jopd77sharJf-3" value="" style="sketch=0;points=[[0,0,0],[0.25,0,0],[0.5,0,0],[0.75,0,0],[1,0,0],[0,1,0],[0.25,1,0],[0.5,1,0],[0.75,1,0],[1,1,0],[0,0.25,0],[0,0.5,0],[0,0.75,0],[1,0.25,0],[1,0.5,0],[1,0.75,0]];outlineConnect=0;fontColor=#232F3E;gradientColor=#FF4F8B;gradientDirection=north;fillColor=#BC1356;strokeColor=#ffffff;dashed=0;verticalLabelPosition=bottom;verticalAlign=top;align=center;html=1;fontSize=12;fontStyle=0;aspect=fixed;shape=mxgraph.aws4.resourceIcon;resIcon=mxgraph.aws4.api_gateway;" vertex="1" parent="Q5xUvwP0jopd77sharJf-6">
          <mxGeometry x="89.25" y="271.25" width="62.5" height="62.5" as="geometry" />
        </mxCell>
        <mxCell id="Q5xUvwP0jopd77sharJf-1" value="" style="sketch=0;points=[[0,0,0],[0.25,0,0],[0.5,0,0],[0.75,0,0],[1,0,0],[0,1,0],[0.25,1,0],[0.5,1,0],[0.75,1,0],[1,1,0],[0,0.25,0],[0,0.5,0],[0,0.75,0],[1,0.25,0],[1,0.5,0],[1,0.75,0]];outlineConnect=0;fontColor=#232F3E;gradientColor=#4D72F3;gradientDirection=north;fillColor=#3334B9;strokeColor=#ffffff;dashed=0;verticalLabelPosition=bottom;verticalAlign=top;align=center;html=1;fontSize=12;fontStyle=0;aspect=fixed;shape=mxgraph.aws4.resourceIcon;resIcon=mxgraph.aws4.dynamodb;" vertex="1" parent="Q5xUvwP0jopd77sharJf-6">
          <mxGeometry x="700" y="189" width="60" height="60" as="geometry" />
        </mxCell>
        <mxCell id="Q5xUvwP0jopd77sharJf-19" style="edgeStyle=orthogonalEdgeStyle;rounded=0;orthogonalLoop=1;jettySize=auto;html=1;entryX=0;entryY=0.5;entryDx=0;entryDy=0;entryPerimeter=0;" edge="1" parent="Q5xUvwP0jopd77sharJf-6" source="Q5xUvwP0jopd77sharJf-12" target="Q5xUvwP0jopd77sharJf-5">
          <mxGeometry relative="1" as="geometry" />
        </mxCell>
        <mxCell id="Q5xUvwP0jopd77sharJf-12" value="" style="sketch=0;points=[[0,0,0],[0.25,0,0],[0.5,0,0],[0.75,0,0],[1,0,0],[0,1,0],[0.25,1,0],[0.5,1,0],[0.75,1,0],[1,1,0],[0,0.25,0],[0,0.5,0],[0,0.75,0],[1,0.25,0],[1,0.5,0],[1,0.75,0]];outlineConnect=0;fontColor=#232F3E;gradientColor=#FF4F8B;gradientDirection=north;fillColor=#BC1356;strokeColor=#ffffff;dashed=0;verticalLabelPosition=bottom;verticalAlign=top;align=center;html=1;fontSize=12;fontStyle=0;aspect=fixed;shape=mxgraph.aws4.resourceIcon;resIcon=mxgraph.aws4.api_gateway;" vertex="1" parent="Q5xUvwP0jopd77sharJf-6">
          <mxGeometry x="270" y="65.5" width="60" height="60" as="geometry" />
        </mxCell>
        <mxCell id="Q5xUvwP0jopd77sharJf-36" style="edgeStyle=orthogonalEdgeStyle;rounded=0;orthogonalLoop=1;jettySize=auto;html=1;" edge="1" parent="Q5xUvwP0jopd77sharJf-6" source="Q5xUvwP0jopd77sharJf-2" target="Q5xUvwP0jopd77sharJf-1">
          <mxGeometry relative="1" as="geometry" />
        </mxCell>
        <mxCell id="Q5xUvwP0jopd77sharJf-2" value="" style="sketch=0;outlineConnect=0;fontColor=#232F3E;gradientColor=none;fillColor=#067F68;strokeColor=none;dashed=0;verticalLabelPosition=bottom;verticalAlign=top;align=center;html=1;fontSize=12;fontStyle=0;aspect=fixed;pointerEvents=1;shape=mxgraph.aws4.rekognition_image;" vertex="1" parent="Q5xUvwP0jopd77sharJf-6">
          <mxGeometry x="550" y="187.5" width="60.22" height="61" as="geometry" />
        </mxCell>
        <mxCell id="Q5xUvwP0jopd77sharJf-15" value="Authentication" style="text;html=1;align=center;verticalAlign=middle;resizable=0;points=[];autosize=1;strokeColor=none;fillColor=none;" vertex="1" parent="Q5xUvwP0jopd77sharJf-6">
          <mxGeometry x="-20" y="70.5" width="90" height="20" as="geometry" />
        </mxCell>
        <mxCell id="Q5xUvwP0jopd77sharJf-17" value="Send id photos&amp;nbsp;" style="text;html=1;align=center;verticalAlign=middle;resizable=0;points=[];autosize=1;strokeColor=none;fillColor=none;" vertex="1" parent="Q5xUvwP0jopd77sharJf-6">
          <mxGeometry x="170" y="70.5" width="100" height="20" as="geometry" />
        </mxCell>
        <mxCell id="Q5xUvwP0jopd77sharJf-22" value="Trigger" style="text;html=1;align=center;verticalAlign=middle;resizable=0;points=[];autosize=1;strokeColor=none;fillColor=none;" vertex="1" parent="Q5xUvwP0jopd77sharJf-6">
          <mxGeometry x="408" y="159" width="50" height="20" as="geometry" />
        </mxCell>
        <mxCell id="Q5xUvwP0jopd77sharJf-30" value="Send opt-out list&lt;br&gt;or&lt;br&gt;Send album list" style="text;html=1;align=center;verticalAlign=middle;resizable=0;points=[];autosize=1;strokeColor=none;fillColor=none;" vertex="1" parent="Q5xUvwP0jopd77sharJf-6">
          <mxGeometry x="130" y="179" width="100" height="50" as="geometry" />
        </mxCell>
        <mxCell id="Q5xUvwP0jopd77sharJf-34" value="Store lists" style="text;html=1;align=center;verticalAlign=middle;resizable=0;points=[];autosize=1;strokeColor=none;fillColor=none;" vertex="1" parent="Q5xUvwP0jopd77sharJf-6">
          <mxGeometry x="220" y="280" width="70" height="20" as="geometry" />
        </mxCell>
        <mxCell id="Q5xUvwP0jopd77sharJf-35" value="" style="sketch=0;points=[[0,0,0],[0.25,0,0],[0.5,0,0],[0.75,0,0],[1,0,0],[0,1,0],[0.25,1,0],[0.5,1,0],[0.75,1,0],[1,1,0],[0,0.25,0],[0,0.5,0],[0,0.75,0],[1,0.25,0],[1,0.5,0],[1,0.75,0]];outlineConnect=0;fontColor=#232F3E;gradientColor=#4D72F3;gradientDirection=north;fillColor=#3334B9;strokeColor=#ffffff;dashed=0;verticalLabelPosition=bottom;verticalAlign=top;align=center;html=1;fontSize=12;fontStyle=0;aspect=fixed;shape=mxgraph.aws4.resourceIcon;resIcon=mxgraph.aws4.dynamodb;" vertex="1" parent="Q5xUvwP0jopd77sharJf-6">
          <mxGeometry x="371.75" y="273.75" width="60" height="60" as="geometry" />
        </mxCell>
        <mxCell id="Q5xUvwP0jopd77sharJf-26" value="IndexFaces API" style="text;html=1;align=center;verticalAlign=middle;resizable=0;points=[];autosize=1;strokeColor=none;fillColor=none;" vertex="1" parent="Q5xUvwP0jopd77sharJf-6">
          <mxGeometry x="440" y="200" width="100" height="20" as="geometry" />
        </mxCell>
        <mxCell id="Q5xUvwP0jopd77sharJf-20" value="Store" style="text;html=1;align=center;verticalAlign=middle;resizable=0;points=[];autosize=1;strokeColor=none;fillColor=none;" vertex="1" parent="Q5xUvwP0jopd77sharJf-6">
          <mxGeometry x="440" y="70.5" width="40" height="20" as="geometry" />
        </mxCell>
        <mxCell id="Q5xUvwP0jopd77sharJf-37" value="Store face name" style="text;html=1;align=center;verticalAlign=middle;resizable=0;points=[];autosize=1;strokeColor=none;fillColor=none;" vertex="1" parent="Q5xUvwP0jopd77sharJf-6">
          <mxGeometry x="600" y="189" width="100" height="20" as="geometry" />
        </mxCell>
        <mxCell id="Q5xUvwP0jopd77sharJf-57" value="" style="edgeStyle=orthogonalEdgeStyle;rounded=0;orthogonalLoop=1;jettySize=auto;html=1;" edge="1" parent="Q5xUvwP0jopd77sharJf-6" source="Q5xUvwP0jopd77sharJf-39" target="Q5xUvwP0jopd77sharJf-41">
          <mxGeometry relative="1" as="geometry" />
        </mxCell>
        <mxCell id="Q5xUvwP0jopd77sharJf-39" value="" style="sketch=0;points=[[0,0,0],[0.25,0,0],[0.5,0,0],[0.75,0,0],[1,0,0],[0,1,0],[0.25,1,0],[0.5,1,0],[0.75,1,0],[1,1,0],[0,0.25,0],[0,0.5,0],[0,0.75,0],[1,0.25,0],[1,0.5,0],[1,0.75,0]];outlineConnect=0;fontColor=#232F3E;gradientColor=#FF4F8B;gradientDirection=north;fillColor=#BC1356;strokeColor=#ffffff;dashed=0;verticalLabelPosition=bottom;verticalAlign=top;align=center;html=1;fontSize=12;fontStyle=0;aspect=fixed;shape=mxgraph.aws4.resourceIcon;resIcon=mxgraph.aws4.api_gateway;" vertex="1" parent="Q5xUvwP0jopd77sharJf-6">
          <mxGeometry x="270" y="394" width="62.5" height="62.5" as="geometry" />
        </mxCell>
        <mxCell id="Q5xUvwP0jopd77sharJf-59" style="edgeStyle=orthogonalEdgeStyle;rounded=0;orthogonalLoop=1;jettySize=auto;html=1;" edge="1" parent="Q5xUvwP0jopd77sharJf-6" source="Q5xUvwP0jopd77sharJf-41" target="Q5xUvwP0jopd77sharJf-42">
          <mxGeometry relative="1" as="geometry" />
        </mxCell>
        <mxCell id="Q5xUvwP0jopd77sharJf-41" value="" style="sketch=0;points=[[0,0,0],[0.25,0,0],[0.5,0,0],[0.75,0,0],[1,0,0],[0,1,0],[0.25,1,0],[0.5,1,0],[0.75,1,0],[1,1,0],[0,0.25,0],[0,0.5,0],[0,0.75,0],[1,0.25,0],[1,0.5,0],[1,0.75,0]];outlineConnect=0;fontColor=#232F3E;gradientColor=#F78E04;gradientDirection=north;fillColor=#D05C17;strokeColor=#ffffff;dashed=0;verticalLabelPosition=bottom;verticalAlign=top;align=center;html=1;fontSize=12;fontStyle=0;aspect=fixed;shape=mxgraph.aws4.resourceIcon;resIcon=mxgraph.aws4.lambda;" vertex="1" parent="Q5xUvwP0jopd77sharJf-6">
          <mxGeometry x="373.75" y="396.75" width="58" height="58" as="geometry" />
        </mxCell>
        <mxCell id="Q5xUvwP0jopd77sharJf-55" value="" style="edgeStyle=orthogonalEdgeStyle;rounded=0;orthogonalLoop=1;jettySize=auto;html=1;" edge="1" parent="Q5xUvwP0jopd77sharJf-6" source="Q5xUvwP0jopd77sharJf-42" target="Q5xUvwP0jopd77sharJf-50">
          <mxGeometry relative="1" as="geometry" />
        </mxCell>
        <mxCell id="Q5xUvwP0jopd77sharJf-42" value="" style="sketch=0;outlineConnect=0;fontColor=#232F3E;gradientColor=none;fillColor=#067F68;strokeColor=none;dashed=0;verticalLabelPosition=bottom;verticalAlign=top;align=center;html=1;fontSize=12;fontStyle=0;aspect=fixed;pointerEvents=1;shape=mxgraph.aws4.rekognition_image;" vertex="1" parent="Q5xUvwP0jopd77sharJf-6">
          <mxGeometry x="600" y="395.88" width="60.22" height="61" as="geometry" />
        </mxCell>
        <mxCell id="Q5xUvwP0jopd77sharJf-43" value="" style="shape=image;html=1;verticalAlign=top;verticalLabelPosition=bottom;labelBackgroundColor=#ffffff;imageAspect=0;aspect=fixed;image=https://cdn1.iconfinder.com/data/icons/unicons-line-vol-5/24/react-128.png" vertex="1" parent="Q5xUvwP0jopd77sharJf-6">
          <mxGeometry x="361.75" y="460" width="70" height="70" as="geometry" />
        </mxCell>
        <mxCell id="Q5xUvwP0jopd77sharJf-48" style="edgeStyle=orthogonalEdgeStyle;rounded=0;orthogonalLoop=1;jettySize=auto;html=1;" edge="1" parent="Q5xUvwP0jopd77sharJf-6" source="Q5xUvwP0jopd77sharJf-45" target="Q5xUvwP0jopd77sharJf-39">
          <mxGeometry relative="1" as="geometry" />
        </mxCell>
        <mxCell id="Q5xUvwP0jopd77sharJf-45" value="" style="sketch=0;points=[[0,0,0],[0.25,0,0],[0.5,0,0],[0.75,0,0],[1,0,0],[0,1,0],[0.25,1,0],[0.5,1,0],[0.75,1,0],[1,1,0],[0,0.25,0],[0,0.5,0],[0,0.75,0],[1,0.25,0],[1,0.5,0],[1,0.75,0]];outlineConnect=0;fontColor=#232F3E;gradientColor=#F54749;gradientDirection=north;fillColor=#C7131F;strokeColor=#ffffff;dashed=0;verticalLabelPosition=bottom;verticalAlign=top;align=center;html=1;fontSize=12;fontStyle=0;aspect=fixed;shape=mxgraph.aws4.resourceIcon;resIcon=mxgraph.aws4.cognito;" vertex="1" parent="Q5xUvwP0jopd77sharJf-6">
          <mxGeometry x="91" y="395.5" width="59" height="59" as="geometry" />
        </mxCell>
        <mxCell id="Q5xUvwP0jopd77sharJf-49" value="Upload photo" style="text;html=1;align=center;verticalAlign=middle;resizable=0;points=[];autosize=1;strokeColor=none;fillColor=none;" vertex="1" parent="Q5xUvwP0jopd77sharJf-6">
          <mxGeometry x="160" y="398.5" width="90" height="20" as="geometry" />
        </mxCell>
        <mxCell id="Q5xUvwP0jopd77sharJf-62" style="edgeStyle=orthogonalEdgeStyle;rounded=0;orthogonalLoop=1;jettySize=auto;html=1;" edge="1" parent="Q5xUvwP0jopd77sharJf-6" source="Q5xUvwP0jopd77sharJf-50" target="Q5xUvwP0jopd77sharJf-43">
          <mxGeometry relative="1" as="geometry">
            <Array as="points">
              <mxPoint x="758" y="495" />
            </Array>
          </mxGeometry>
        </mxCell>
        <mxCell id="Q5xUvwP0jopd77sharJf-50" value="" style="sketch=0;points=[[0,0,0],[0.25,0,0],[0.5,0,0],[0.75,0,0],[1,0,0],[0,1,0],[0.25,1,0],[0.5,1,0],[0.75,1,0],[1,1,0],[0,0.25,0],[0,0.5,0],[0,0.75,0],[1,0.25,0],[1,0.5,0],[1,0.75,0]];outlineConnect=0;fontColor=#232F3E;gradientColor=#60A337;gradientDirection=north;fillColor=#277116;strokeColor=#ffffff;dashed=0;verticalLabelPosition=bottom;verticalAlign=top;align=center;html=1;fontSize=12;fontStyle=0;aspect=fixed;shape=mxgraph.aws4.resourceIcon;resIcon=mxgraph.aws4.s3;" vertex="1" parent="Q5xUvwP0jopd77sharJf-6">
          <mxGeometry x="725.75" y="394" width="64.12" height="64.12" as="geometry" />
        </mxCell>
        <mxCell id="Q5xUvwP0jopd77sharJf-52" value="SearchFacesByImage API" style="text;html=1;align=center;verticalAlign=middle;resizable=0;points=[];autosize=1;strokeColor=none;fillColor=none;" vertex="1" parent="Q5xUvwP0jopd77sharJf-6">
          <mxGeometry x="431.75" y="396.75" width="160" height="20" as="geometry" />
        </mxCell>
        <mxCell id="Q5xUvwP0jopd77sharJf-56" value="Original or&lt;br&gt;blurred&lt;br&gt;&amp;nbsp;photo" style="text;html=1;align=center;verticalAlign=middle;resizable=0;points=[];autosize=1;strokeColor=none;fillColor=none;" vertex="1" parent="Q5xUvwP0jopd77sharJf-6">
          <mxGeometry x="655.75" y="370" width="70" height="50" as="geometry" />
        </mxCell>
        <mxCell id="Q5xUvwP0jopd77sharJf-63" value="display/download" style="text;html=1;align=center;verticalAlign=middle;resizable=0;points=[];autosize=1;strokeColor=none;fillColor=none;" vertex="1" parent="Q5xUvwP0jopd77sharJf-6">
          <mxGeometry x="560" y="500" width="110" height="20" as="geometry" />
        </mxCell>
        <mxCell id="Q5xUvwP0jopd77sharJf-123" value="Authentication" style="text;html=1;align=center;verticalAlign=middle;resizable=0;points=[];autosize=1;strokeColor=none;fillColor=none;" vertex="1" parent="Q5xUvwP0jopd77sharJf-6">
          <mxGeometry x="-40" y="398.5" width="90" height="20" as="geometry" />
        </mxCell>
        <mxCell id="Q5xUvwP0jopd77sharJf-113" value="" style="fontStyle=0;dashed=1;fillColor=none;" vertex="1" parent="1">
          <mxGeometry x="40" y="160" width="110" height="70" as="geometry" />
        </mxCell>
        <mxCell id="Q5xUvwP0jopd77sharJf-8" value="" style="sketch=0;outlineConnect=0;fontColor=#232F3E;gradientColor=none;fillColor=#232F3D;strokeColor=none;dashed=0;verticalLabelPosition=bottom;verticalAlign=top;align=center;html=1;fontSize=12;fontStyle=0;aspect=fixed;pointerEvents=1;shape=mxgraph.aws4.user;" vertex="1" parent="1">
          <mxGeometry x="50" y="175" width="40" height="40" as="geometry" />
        </mxCell>
        <mxCell id="Q5xUvwP0jopd77sharJf-9" value="" style="sketch=0;outlineConnect=0;fontColor=#232F3E;gradientColor=none;fillColor=#232F3D;strokeColor=none;dashed=0;verticalLabelPosition=bottom;verticalAlign=top;align=center;html=1;fontSize=12;fontStyle=0;aspect=fixed;pointerEvents=1;shape=mxgraph.aws4.client;" vertex="1" parent="1">
          <mxGeometry x="100" y="175" width="41.06" height="40" as="geometry" />
        </mxCell>
        <mxCell id="Q5xUvwP0jopd77sharJf-14" style="edgeStyle=orthogonalEdgeStyle;rounded=0;orthogonalLoop=1;jettySize=auto;html=1;" edge="1" parent="1" source="Q5xUvwP0jopd77sharJf-9" target="Q5xUvwP0jopd77sharJf-7">
          <mxGeometry relative="1" as="geometry">
            <Array as="points">
              <mxPoint x="270" y="195" />
              <mxPoint x="270" y="195" />
            </Array>
          </mxGeometry>
        </mxCell>
        <mxCell id="Q5xUvwP0jopd77sharJf-114" value="" style="fontStyle=0;dashed=1;fillColor=none;" vertex="1" parent="1">
          <mxGeometry x="31.06" y="490" width="110" height="70" as="geometry" />
        </mxCell>
        <mxCell id="Q5xUvwP0jopd77sharJf-115" value="" style="sketch=0;outlineConnect=0;fontColor=#232F3E;gradientColor=none;fillColor=#232F3D;strokeColor=none;dashed=0;verticalLabelPosition=bottom;verticalAlign=top;align=center;html=1;fontSize=12;fontStyle=0;aspect=fixed;pointerEvents=1;shape=mxgraph.aws4.user;" vertex="1" parent="1">
          <mxGeometry x="41.06" y="505" width="40" height="40" as="geometry" />
        </mxCell>
        <mxCell id="Q5xUvwP0jopd77sharJf-122" style="edgeStyle=orthogonalEdgeStyle;rounded=0;orthogonalLoop=1;jettySize=auto;html=1;" edge="1" parent="1" source="Q5xUvwP0jopd77sharJf-116" target="Q5xUvwP0jopd77sharJf-45">
          <mxGeometry relative="1" as="geometry" />
        </mxCell>
        <mxCell id="Q5xUvwP0jopd77sharJf-116" value="" style="sketch=0;outlineConnect=0;fontColor=#232F3E;gradientColor=none;fillColor=#232F3D;strokeColor=none;dashed=0;verticalLabelPosition=bottom;verticalAlign=top;align=center;html=1;fontSize=12;fontStyle=0;aspect=fixed;pointerEvents=1;shape=mxgraph.aws4.client;" vertex="1" parent="1">
          <mxGeometry x="90" y="505" width="41.06" height="40" as="geometry" />
        </mxCell>
      </root>
    </mxGraphModel>
  </diagram>
</mxfile>
